# xmcd CD database file
#
# Track frame offsets:
#	150
#	13338
#	28742
#	42366
#	61099
#	81556
#	94438
#	111656
#	127624
#	146570
#	156955
#	172338
#	182660
#	193776
#	212572
#
# Disc length: 2909 seconds
#
# Revision: 0
# Processed by: cddbd v1.5.1PL2 Copyright (c) Steve Scherf et al.
# Submitted via: CDex 1.51
#
DISCID=df0b5b0f
DTITLE=Texas Lightning - Meanwhile, Back At The Ranch
DYEAR=2006
DGENRE=Country
TTITLE0=Bad Case Of Lovin' You
TTITLE1=Like A Virgin
TTITLE2=No No Never
TTITLE3=Kiss
TTITLE4=Over The Mountains (Über den Wolken)
TTITLE5=C'est La Vie
TTITLE6=Highway To Hell
TTITLE7=Dancing Queen
TTITLE8=Man In The Mirror
TTITLE9=Norwegian Wood
TTITLE10=Smoke, Smoke, Smoke (That Cigarette)
TTITLE11=Walkin' After Midnight
TTITLE12=Raindrops Keep Falling On My Head
TTITLE13=Walk On The Wild Side
TTITLE14=Blue Bayou
EXTD=YEAR: 2006
EXTT0=
EXTT1=
EXTT2=
EXTT3=
EXTT4=
EXTT5=
EXTT6=
EXTT7=
EXTT8=
EXTT9=
EXTT10=
EXTT11=
EXTT12=
EXTT13=
EXTT14=
PLAYORDER=
